0
SECTION
2
HEADER
9
$INSUNITS
70
4
9
$ACADVER
1
AC1014
9
$HANDSEED
5
FFFF
0
ENDSEC
0
SECTION
2
TABLES
0
TABLE
2
VPORT
5
8
100
AcDbSymbolTable
0
ENDTAB
0
TABLE
2
LTYPE
5
5
100
AcDbSymbolTable
0
LTYPE
5
14
100
AcDbSymbolTableRecord
100
AcDbLinetypeTableRecord
2
BYBLOCK
70
0
0
LTYPE
5
15
100
AcDbSymbolTableRecord
100
AcDbLinetypeTableRecord
2
BYLAYER
70
0
0
ENDTAB
0
TABLE
2
LAYER
5
2
100
AcDbSymbolTable
70
2
0
LAYER
5
50
100
AcDbSymbolTableRecord
100
AcDbLayerTableRecord
2
0
70
0
6
CONTINUOUS
0
ENDTAB
0
TABLE
2
STYLE
5
3
100
AcDbSymbolTable
70
1
0
STYLE
5
11
100
AcDbSymbolTableRecord
100
AcDbTextStyleTableRecord
2
STANDARD
70
0
0
ENDTAB
0
TABLE
2
VIEW
5
6
100
AcDbSymbolTable
70
0
0
ENDTAB
0
TABLE
2
UCS
5
7
100
AcDbSymbolTable
70
0
0
ENDTAB
0
TABLE
2
APPID
5
9
100
AcDbSymbolTable
70
2
0
APPID
5
12
100
AcDbSymbolTableRecord
100
AcDbRegAppTableRecord
2
ACAD
70
0
0
ENDTAB
0
TABLE
2
DIMSTYLE
5
A
100
AcDbSymbolTable
70
1
0
ENDTAB
0
TABLE
2
BLOCK_RECORD
5
1
100
AcDbSymbolTable
70
1
0
BLOCK_RECORD
5
1F
100
AcDbSymbolTableRecord
100
AcDbBlockTableRecord
2
*MODEL_SPACE
0
BLOCK_RECORD
5
1B
100
AcDbSymbolTableRecord
100
AcDbBlockTableRecord
2
*PAPER_SPACE
0
ENDTAB
0
ENDSEC
0
SECTION
2
BLOCKS
0
BLOCK
5
20
100
AcDbEntity
100
AcDbBlockBegin
2
*MODEL_SPACE
0
ENDBLK
5
21
100
AcDbEntity
100
AcDbBlockEnd
0
BLOCK
5
1C
100
AcDbEntity
100
AcDbBlockBegin
2
*PAPER_SPACE
0
ENDBLK
5
1D
100
AcDbEntity
100
AcDbBlockEnd
0
ENDSEC
0
SECTION
2
ENTITIES
0
ARC
5
100
100
AcDbEntity
8
0
100
AcDbCircle
10
-2.7240122241040989
20
-14.433399108969137
30
0
40
2.3749992996454199
100
AcDbArc
50
77.499999999999957
51
257.5
0
LINE
5
101
100
AcDbEntity
8
0
100
AcDbLine
10
-2.2099682925855784
20
-12.114696775812677
30
0
11
4.9840370339313544
21
-13.709569359726359
31
0
0
ARC
5
102
100
AcDbEntity
8
0
100
AcDbCircle
10
-73.250000000000824
20
-49.500000000000497
30
0
40
86.032083992211582
100
AcDbArc
50
24.583100703784329
51
28.213527195537615
0
LINE
5
103
100
AcDbEntity
8
0
100
AcDbLine
10
2.5607722036267178
20
-8.827573296733302
30
0
11
-2.8211689815571805
21
-8.3567144552664452
31
0
0
LINE
5
104
100
AcDbEntity
8
0
100
AcDbLine
10
-2.8211689815571805
20
-8.3567144552664452
30
0
11
-3.0825396180077114
21
-8.3338474875984581
31
0
0
LINE
5
105
100
AcDbEntity
8
0
100
AcDbLine
10
-3.0825396180077114
20
-8.3338474875984581
30
0
11
-8.2264920298415571
21
-7.8838099658461758
31
0
0
ARC
5
106
100
AcDbEntity
8
0
100
AcDbCircle
10
-8.0194971408158722
20
-5.5178475578782926
30
0
40
2.3749999999999973
100
AcDbArc
50
84.999999999999986
51
265
0
LINE
5
107
100
AcDbEntity
8
0
100
AcDbLine
10
-7.8125022517901836
20
-3.1518851499104006
30
0
11
-1.0571449020144819
21
-3.7429023360822811
31
0
0
ARC
5
108
100
AcDbEntity
8
0
100
AcDbCircle
10
-73.249999999999815
20
21.21485714285706
30
0
40
76.385195459639249
100
AcDbArc
50
340.929243536998
51
342.06726101995741
0
ARC
5
109
100
AcDbEntity
8
0
100
AcDbCircle
10
1.5543122344752192e-14
20
8.8817841970012523e-15
30
0
40
2.3750000000326348
100
AcDbArc
50
34.049565737593404
51
255.97170566346648
0
ARC
5
110
100
AcDbEntity
8
0
100
AcDbCircle
10
-73.250000000000824
20
-49.500000000000497
30
0
40
90.782083992211525
100
AcDbArc
50
29.84953806845223
51
34.049565738530646
0
LINE
5
111
100
AcDbEntity
8
0
100
AcDbLine
10
5.4885191447610282
20
-4.3155737354243495
30
0
11
16.096170502411713
21
-5.2436229758541764
31
0
0
ARC
5
112
100
AcDbEntity
8
0
100
AcDbCircle
10
15.889175613386023
20
-7.6095853838220773
30
0
40
2.374999999999992
100
AcDbArc
50
-95
51
85.000000000000014
0
LINE
5
113
100
AcDbEntity
8
0
100
AcDbLine
10
15.682180724360336
20
-9.975547791789964
30
0
11
8.1546125687158266
21
-9.3169709142523427
31
0
0
ARC
5
114
100
AcDbEntity
8
0
100
AcDbCircle
10
-73.250000000000824
20
-49.500000000000497
30
0
40
90.782083992211525
100
AcDbArc
50
22.349537529835885
51
26.271915536032434
0
LINE
5
115
100
AcDbEntity
8
0
100
AcDbLine
10
10.712651630733205
20
-14.979572640175718
30
0
11
21.221135878292834
21
-17.309247510327136
31
0
0
ARC
5
116
100
AcDbEntity
8
0
100
AcDbCircle
10
20.707091946774312
20
-19.627949843483602
30
0
40
2.3749992996454203
100
AcDbArc
50
-102.50000000000003
51
77.499999999999943
0
LINE
5
117
100
AcDbEntity
8
0
100
AcDbLine
10
20.193048015255791
20
-21.946652176640065
30
0
11
12.703122338124242
21
-20.286175630427699
31
0
0
ARC
5
118
100
AcDbEntity
8
0
100
AcDbCircle
10
-73.250000000000824
20
-49.500000000000497
30
0
40
90.782083992211483
100
AcDbArc
50
14.849538068452388
51
18.771916053186615
0
LINE
5
119
100
AcDbEntity
8
0
100
AcDbLine
10
14.500159224983644
20
-26.234224062825859
30
0
11
24.601090857017773
21
-29.910662515244283
31
0
0
ARC
5
120
100
AcDbEntity
8
0
100
AcDbCircle
10
23.788793016619316
20
-32.142432489610812
30
0
40
2.3749999999999964
100
AcDbArc
50
-110.00000000000009
51
70
0
LINE
5
121
100
AcDbEntity
8
0
100
AcDbLine
10
22.976495176220851
20
-34.37420246397734
30
0
11
0.42387227735905419
21
-26.16571902416128
31
0
0
ARC
5
122
100
AcDbEntity
8
0
100
AcDbCircle
10
1.2361701177575164
20
-23.933949049794755
30
0
40
2.3749999999999956
100
AcDbArc
50
70.000000000000028
51
250.00000000000003
0
LINE
5
123
100
AcDbEntity
8
0
100
AcDbLine
10
2.0484679581559768
20
-21.702179075428226
30
0
11
8.9863223733200748
21
-24.227351572220325
31
0
0
ARC
5
124
100
AcDbEntity
8
0
100
AcDbCircle
10
-73.250000000000824
20
-49.500000000000497
30
0
40
86.032083992211525
100
AcDbArc
50
17.083101288449164
51
20.713527753036253
0
LINE
5
125
100
AcDbEntity
8
0
100
AcDbLine
10
7.2210172279109495
20
-19.070822187445881
30
0
11
-3.238056155622612
21
-16.752101442125603
31
0
0
LINE
5
126
100
AcDbEntity
8
0
100
AcDbLine
10
-10.588428571428592
20
-49.625
30
0
11
10.590571428571414
21
-49.625
31
0
0
LINE
5
127
100
AcDbEntity
8
0
100
AcDbLine
10
10.590571428571414
20
-49.625
30
0
11
10.590571428571414
21
-43.625000000000007
31
0
0
LINE
5
128
100
AcDbEntity
8
0
100
AcDbLine
10
10.590571428571414
20
-43.625000000000007
30
0
11
31.269571428571417
21
-43.624999999999986
31
0
0
LINE
5
129
100
AcDbEntity
8
0
100
AcDbLine
10
31.269571428571417
20
-43.625
30
0
11
31.26957142857141
21
-49.625000000000014
31
0
0
LINE
5
130
100
AcDbEntity
8
0
100
AcDbLine
10
31.26957142857141
20
-49.625000000000014
30
0
11
52.448571428571412
21
-49.625
31
0
0
LINE
5
131
100
AcDbEntity
8
0
100
AcDbLine
10
52.448571428571412
20
-49.625
30
0
11
52.44857142857142
21
-43.624999999999986
31
0
0
LINE
5
132
100
AcDbEntity
8
0
100
AcDbLine
10
52.44857142857142
20
-43.624999999999986
30
0
11
61.375000000000014
21
-43.625000000000014
31
0
0
LINE
5
133
100
AcDbEntity
8
0
100
AcDbLine
10
61.375000000000014
20
-43.625000000000028
30
0
11
61.375000000000014
21
-34.62514539664064
31
0
0
LINE
5
134
100
AcDbEntity
8
0
100
AcDbLine
10
61.375000000000014
20
-34.62514539664064
30
0
11
73.375000000000028
21
-34.625145396640626
31
0
0
LINE
5
135
100
AcDbEntity
8
0
100
AcDbLine
10
73.375000000000028
20
-34.625145396640626
30
0
11
73.375000000000028
21
-21.089142857142861
31
0
0
LINE
5
136
100
AcDbEntity
8
0
100
AcDbLine
10
73.375000000000028
20
-21.089142857142861
30
0
11
67.375
21
-21.089142857142878
31
0
0
LINE
5
137
100
AcDbEntity
8
0
100
AcDbLine
10
67.375
20
-21.089142857142878
30
0
11
67.375000000000028
21
-7.1961428571428243
31
0
0
LINE
5
138
100
AcDbEntity
8
0
100
AcDbLine
10
67.375000000000028
20
-7.1961428571428243
30
0
11
73.375000000000028
21
-7.1961428571428598
31
0
0
LINE
5
139
100
AcDbEntity
8
0
100
AcDbLine
10
73.375000000000028
20
-7.1961428571428598
30
0
11
73.375000000000028
21
7.1968571428571515
31
0
0
LINE
5
140
100
AcDbEntity
8
0
100
AcDbLine
10
73.375000000000028
20
7.1968571428571515
30
0
11
67.375
21
7.1968571428571337
31
0
0
LINE
5
141
100
AcDbEntity
8
0
100
AcDbLine
10
67.375
20
7.1968571428571337
30
0
11
67.375000000000028
21
21.089857142857156
31
0
0
LINE
5
142
100
AcDbEntity
8
0
100
AcDbLine
10
67.375000000000028
20
21.089857142857156
30
0
11
73.375000000000028
21
21.089857142857138
31
0
0
LINE
5
143
100
AcDbEntity
8
0
100
AcDbLine
10
73.375000000000028
20
21.089857142857138
30
0
11
73.375000000000028
21
35.482857142857142
31
0
0
LINE
5
144
100
AcDbEntity
8
0
100
AcDbLine
10
73.375000000000028
20
35.482857142857142
30
0
11
67.375000000000028
21
35.482857142857107
31
0
0
LINE
5
145
100
AcDbEntity
8
0
100
AcDbLine
10
67.375000000000028
20
35.482857142857107
30
0
11
67.375000000000057
21
49.625000000000014
31
0
0
LINE
5
146
100
AcDbEntity
8
0
100
AcDbLine
10
67.375000000000057
20
49.625000000000014
30
0
11
-67.375000000000014
21
49.625000000000028
31
0
0
LINE
5
147
100
AcDbEntity
8
0
100
AcDbLine
10
-67.375000000000014
20
49.625000000000028
30
0
11
-67.375
21
35.482857142857142
31
0
0
LINE
5
148
100
AcDbEntity
8
0
100
AcDbLine
10
-67.375
20
35.482857142857142
30
0
11
-73.375000000000028
21
35.482857142857142
31
0
0
LINE
5
149
100
AcDbEntity
8
0
100
AcDbLine
10
-73.375000000000028
20
35.482857142857142
30
0
11
-73.374999999999815
21
21.089857142857056
31
0
0
LINE
5
150
100
AcDbEntity
8
0
100
AcDbLine
10
-73.374999999999815
20
21.089857142857056
30
0
11
-67.375
21
21.089857142857156
31
0
0
LINE
5
151
100
AcDbEntity
8
0
100
AcDbLine
10
-67.375
20
21.089857142857156
30
0
11
-67.375000000000028
21
7.1968571428571515
31
0
0
LINE
5
152
100
AcDbEntity
8
0
100
AcDbLine
10
-67.375000000000028
20
7.1968571428571515
30
0
11
-73.375000000000028
21
7.1968571428571515
31
0
0
LINE
5
153
100
AcDbEntity
8
0
100
AcDbLine
10
-73.375000000000028
20
7.1968571428571515
30
0
11
-73.375
21
-7.1961428571428421
31
0
0
LINE
5
154
100
AcDbEntity
8
0
100
AcDbLine
10
-73.375
20
-7.1961428571428421
30
0
11
-67.375
21
-7.1961428571428598
31
0
0
LINE
5
155
100
AcDbEntity
8
0
100
AcDbLine
10
-67.375
20
-7.1961428571428598
30
0
11
-67.375
21
-21.089142857142861
31
0
0
LINE
5
156
100
AcDbEntity
8
0
100
AcDbLine
10
-67.375
20
-21.089142857142861
30
0
11
-73.375000000000028
21
-21.089142857142861
31
0
0
LINE
5
157
100
AcDbEntity
8
0
100
AcDbLine
10
-73.375000000000028
20
-21.089142857142861
30
0
11
-73.375000000000014
21
-35.482142857142861
31
0
0
LINE
5
158
100
AcDbEntity
8
0
100
AcDbLine
10
-73.375000000000014
20
-35.482142857142861
30
0
11
-67.375000000000028
21
-35.482142857142854
31
0
0
LINE
5
159
100
AcDbEntity
8
0
100
AcDbLine
10
-67.375000000000028
20
-35.482142857142854
30
0
11
-67.375000000000028
21
-43.625
31
0
0
LINE
5
160
100
AcDbEntity
8
0
100
AcDbLine
10
-67.375000000000028
20
-43.625
30
0
11
-52.446428571428584
21
-43.625000000000007
31
0
0
LINE
5
161
100
AcDbEntity
8
0
100
AcDbLine
10
-52.446428571428584
20
-43.625000000000007
30
0
11
-52.446428571428584
21
-49.625
31
0
0
LINE
5
162
100
AcDbEntity
8
0
100
AcDbLine
10
-52.446428571428584
20
-49.625
30
0
11
-31.267428571428567
21
-49.625000000000014
31
0
0
LINE
5
163
100
AcDbEntity
8
0
100
AcDbLine
10
-31.267428571428567
20
-49.625000000000014
30
0
11
-31.267428571428574
21
-43.625000000000007
31
0
0
LINE
5
164
100
AcDbEntity
8
0
100
AcDbLine
10
-31.267428571428574
20
-43.625000000000007
30
0
11
-10.588428571428587
21
-43.625000000000007
31
0
0
LINE
5
165
100
AcDbEntity
8
0
100
AcDbLine
10
-10.588428571428587
20
-43.625000000000007
30
0
11
-10.588428571428592
21
-49.625000000000014
31
0
0
ENDSEC
0
SECTION
2
OBJECTS
0
DICTIONARY
5
C
100
AcDbDictionary
3
ACAD_GROUP
350
D
3
ACAD_MLINESTYLE
350
17
0
DICTIONARY
5
D
100
AcDbDictionary
0
DICTIONARY
5
1A
330
C
100
AcDbDictionary
0
DICTIONARY
5
17
100
AcDbDictionary
0
ENDSEC
0
EOF
