0
SECTION
2
HEADER
9
$INSUNITS
70
4
9
$ACADVER
1
AC1014
9
$HANDSEED
5
FFFF
0
ENDSEC
0
SECTION
2
TABLES
0
TABLE
2
VPORT
5
8
100
AcDbSymbolTable
0
ENDTAB
0
TABLE
2
LTYPE
5
5
100
AcDbSymbolTable
0
LTYPE
5
14
100
AcDbSymbolTableRecord
100
AcDbLinetypeTableRecord
2
BYBLOCK
70
0
0
LTYPE
5
15
100
AcDbSymbolTableRecord
100
AcDbLinetypeTableRecord
2
BYLAYER
70
0
0
ENDTAB
0
TABLE
2
LAYER
5
2
100
AcDbSymbolTable
70
2
0
LAYER
5
50
100
AcDbSymbolTableRecord
100
AcDbLayerTableRecord
2
0
70
0
6
CONTINUOUS
0
ENDTAB
0
TABLE
2
STYLE
5
3
100
AcDbSymbolTable
70
1
0
STYLE
5
11
100
AcDbSymbolTableRecord
100
AcDbTextStyleTableRecord
2
STANDARD
70
0
0
ENDTAB
0
TABLE
2
VIEW
5
6
100
AcDbSymbolTable
70
0
0
ENDTAB
0
TABLE
2
UCS
5
7
100
AcDbSymbolTable
70
0
0
ENDTAB
0
TABLE
2
APPID
5
9
100
AcDbSymbolTable
70
2
0
APPID
5
12
100
AcDbSymbolTableRecord
100
AcDbRegAppTableRecord
2
ACAD
70
0
0
ENDTAB
0
TABLE
2
DIMSTYLE
5
A
100
AcDbSymbolTable
70
1
0
ENDTAB
0
TABLE
2
BLOCK_RECORD
5
1
100
AcDbSymbolTable
70
1
0
BLOCK_RECORD
5
1F
100
AcDbSymbolTableRecord
100
AcDbBlockTableRecord
2
*MODEL_SPACE
0
BLOCK_RECORD
5
1B
100
AcDbSymbolTableRecord
100
AcDbBlockTableRecord
2
*PAPER_SPACE
0
ENDTAB
0
ENDSEC
0
SECTION
2
BLOCKS
0
BLOCK
5
20
100
AcDbEntity
100
AcDbBlockBegin
2
*MODEL_SPACE
0
ENDBLK
5
21
100
AcDbEntity
100
AcDbBlockEnd
0
BLOCK
5
1C
100
AcDbEntity
100
AcDbBlockBegin
2
*PAPER_SPACE
0
ENDBLK
5
1D
100
AcDbEntity
100
AcDbBlockEnd
0
ENDSEC
0
SECTION
2
ENTITIES
0
LINE
5
100
100
AcDbEntity
8
0
100
AcDbLine
10
-156.72499999999997
20
-17.080167037548438
30
0
11
-156.72499999999999
21
-22.919687565811053
31
0
0
ARC
5
101
100
AcDbEntity
8
0
100
AcDbCircle
10
-165
20
-19.999927301679715
30
0
40
8.7750000000000199
100
AcDbArc
50
199.43493685014172
51
340.56506314985751
0
LINE
5
102
100
AcDbEntity
8
0
100
AcDbLine
10
-173.27500000000003
20
-22.91968756581095
30
0
11
-173.27500000000003
21
-17.080167037548499
31
0
0
ARC
5
103
100
AcDbEntity
8
0
100
AcDbCircle
10
-165
20
-19.999927301679715
30
0
40
8.7750000000000163
100
AcDbArc
50
19.434936850142005
51
160.56506314985833
0
LINE
5
104
100
AcDbEntity
8
0
100
AcDbLine
10
-189.77080958597759
20
-29.501645307417228
30
0
11
-200.59550842129039
21
-29.385907998053948
31
0
0
LINE
5
105
100
AcDbEntity
8
0
100
AcDbLine
10
-200.59550842129039
20
-29.385907998053948
30
0
11
-205.90762638887253
21
-19.95357516367562
31
0
0
LINE
5
106
100
AcDbEntity
8
0
100
AcDbLine
10
-205.90762638887253
20
-19.95357516367562
30
0
11
-200.39504552114187
21
-10.636979638660584
31
0
0
LINE
5
107
100
AcDbEntity
8
0
100
AcDbLine
10
-200.39504552114187
20
-10.636979638660584
30
0
11
-189.57034668582909
21
-10.752716948023879
31
0
0
LINE
5
108
100
AcDbEntity
8
0
100
AcDbLine
10
-189.57034668582909
20
-10.752716948023879
30
0
11
-184.25822871824695
21
-20.185049782402203
31
0
0
LINE
5
109
100
AcDbEntity
8
0
100
AcDbLine
10
-184.25822871824695
20
-20.185049782402203
30
0
11
-189.77080958597759
21
-29.501645307417228
31
0
0
LINE
5
110
100
AcDbEntity
8
0
100
AcDbLine
10
219.48600000000002
20
-28.839070158822576
30
0
11
219.48600000000002
21
-14.446070158822533
31
0
0
LINE
5
111
100
AcDbEntity
8
0
100
AcDbLine
10
219.48600000000002
20
-14.446070158822533
30
0
11
213.48600000000002
21
-14.446070158822533
31
0
0
LINE
5
112
100
AcDbEntity
8
0
100
AcDbLine
10
213.48600000000002
20
-14.446070158822533
30
0
11
213.48600000000002
21
-0.55307015882256394
31
0
0
LINE
5
113
100
AcDbEntity
8
0
100
AcDbLine
10
213.48600000000002
20
-0.55307015882256394
30
0
11
219.48600000000002
21
-0.55307015882256394
31
0
0
LINE
5
114
100
AcDbEntity
8
0
100
AcDbLine
10
219.48600000000002
20
-0.55307015882256394
30
0
11
219.48600000000002
21
13.839929841177447
31
0
0
LINE
5
115
100
AcDbEntity
8
0
100
AcDbLine
10
219.48600000000002
20
13.839929841177447
30
0
11
213.48600000000002
21
13.839929841177447
31
0
0
LINE
5
116
100
AcDbEntity
8
0
100
AcDbLine
10
213.48600000000002
20
13.839929841177447
30
0
11
213.48600000000002
21
27.732929841177398
31
0
0
LINE
5
117
100
AcDbEntity
8
0
100
AcDbLine
10
213.48600000000002
20
27.732929841177398
30
0
11
219.48600000000002
21
27.732929841177398
31
0
0
LINE
5
118
100
AcDbEntity
8
0
100
AcDbLine
10
219.48600000000002
20
27.732929841177398
30
0
11
219.48600000000002
21
42.125072698320253
31
0
0
LINE
5
119
100
AcDbEntity
8
0
100
AcDbLine
10
219.48600000000002
20
42.125072698320253
30
0
11
-219.48600000000002
21
42.125072698320253
31
0
0
LINE
5
120
100
AcDbEntity
8
0
100
AcDbLine
10
-219.48600000000002
20
42.125072698320253
30
0
11
-219.48600000000002
21
27.732929841177416
31
0
0
LINE
5
121
100
AcDbEntity
8
0
100
AcDbLine
10
-219.48600000000002
20
27.732929841177416
30
0
11
-213.48600000000002
21
27.732929841177416
31
0
0
LINE
5
122
100
AcDbEntity
8
0
100
AcDbLine
10
-213.48600000000002
20
27.732929841177416
30
0
11
-213.48600000000002
21
13.839929841177447
31
0
0
LINE
5
123
100
AcDbEntity
8
0
100
AcDbLine
10
-213.48600000000002
20
13.839929841177447
30
0
11
-219.48600000000002
21
13.839929841177447
31
0
0
LINE
5
124
100
AcDbEntity
8
0
100
AcDbLine
10
-219.48600000000002
20
13.839929841177447
30
0
11
-219.48600000000002
21
-0.5530701588225817
31
0
0
LINE
5
125
100
AcDbEntity
8
0
100
AcDbLine
10
-219.48600000000002
20
-0.5530701588225817
30
0
11
-213.48600000000002
21
-0.5530701588225817
31
0
0
LINE
5
126
100
AcDbEntity
8
0
100
AcDbLine
10
-213.48600000000002
20
-0.5530701588225817
30
0
11
-213.48600000000002
21
-14.446070158822568
31
0
0
LINE
5
127
100
AcDbEntity
8
0
100
AcDbLine
10
-213.48600000000002
20
-14.446070158822568
30
0
11
-219.48600000000002
21
-14.446070158822568
31
0
0
LINE
5
128
100
AcDbEntity
8
0
100
AcDbLine
10
-219.48600000000002
20
-14.446070158822568
30
0
11
-219.48600000000002
21
-28.839070158822558
31
0
0
LINE
5
129
100
AcDbEntity
8
0
100
AcDbLine
10
-219.48600000000002
20
-28.839070158822558
30
0
11
-213.48600000000002
21
-28.839070158822558
31
0
0
LINE
5
130
100
AcDbEntity
8
0
100
AcDbLine
10
-213.48600000000002
20
-28.839070158822558
30
0
11
-213.48600000000002
21
-42.125072698320309
31
0
0
LINE
5
131
100
AcDbEntity
8
0
100
AcDbLine
10
-213.48600000000002
20
-42.125072698320309
30
0
11
213.48600000000002
21
-42.125072698320309
31
0
0
LINE
5
132
100
AcDbEntity
8
0
100
AcDbLine
10
213.48600000000002
20
-42.125072698320309
30
0
11
213.48600000000002
21
-28.83907015882258
31
0
0
LINE
5
133
100
AcDbEntity
8
0
100
AcDbLine
10
213.48600000000002
20
-28.839070158822576
30
0
11
219.48600000000002
21
-28.839070158822576
31
0
0
ENDSEC
0
SECTION
2
OBJECTS
0
DICTIONARY
5
C
100
AcDbDictionary
3
ACAD_GROUP
350
D
3
ACAD_MLINESTYLE
350
17
0
DICTIONARY
5
D
100
AcDbDictionary
0
DICTIONARY
5
1A
330
C
100
AcDbDictionary
0
DICTIONARY
5
17
100
AcDbDictionary
0
ENDSEC
0
EOF
