0
SECTION
2
HEADER
9
$INSUNITS
70
4
9
$ACADVER
1
AC1014
9
$HANDSEED
5
FFFF
0
ENDSEC
0
SECTION
2
TABLES
0
TABLE
2
VPORT
5
8
100
AcDbSymbolTable
0
ENDTAB
0
TABLE
2
LTYPE
5
5
100
AcDbSymbolTable
0
LTYPE
5
14
100
AcDbSymbolTableRecord
100
AcDbLinetypeTableRecord
2
BYBLOCK
70
0
0
LTYPE
5
15
100
AcDbSymbolTableRecord
100
AcDbLinetypeTableRecord
2
BYLAYER
70
0
0
ENDTAB
0
TABLE
2
LAYER
5
2
100
AcDbSymbolTable
70
2
0
LAYER
5
50
100
AcDbSymbolTableRecord
100
AcDbLayerTableRecord
2
0
70
0
6
CONTINUOUS
0
ENDTAB
0
TABLE
2
STYLE
5
3
100
AcDbSymbolTable
70
1
0
STYLE
5
11
100
AcDbSymbolTableRecord
100
AcDbTextStyleTableRecord
2
STANDARD
70
0
0
ENDTAB
0
TABLE
2
VIEW
5
6
100
AcDbSymbolTable
70
0
0
ENDTAB
0
TABLE
2
UCS
5
7
100
AcDbSymbolTable
70
0
0
ENDTAB
0
TABLE
2
APPID
5
9
100
AcDbSymbolTable
70
2
0
APPID
5
12
100
AcDbSymbolTableRecord
100
AcDbRegAppTableRecord
2
ACAD
70
0
0
ENDTAB
0
TABLE
2
DIMSTYLE
5
A
100
AcDbSymbolTable
70
1
0
ENDTAB
0
TABLE
2
BLOCK_RECORD
5
1
100
AcDbSymbolTable
70
1
0
BLOCK_RECORD
5
1F
100
AcDbSymbolTableRecord
100
AcDbBlockTableRecord
2
*MODEL_SPACE
0
BLOCK_RECORD
5
1B
100
AcDbSymbolTableRecord
100
AcDbBlockTableRecord
2
*PAPER_SPACE
0
ENDTAB
0
ENDSEC
0
SECTION
2
BLOCKS
0
BLOCK
5
20
100
AcDbEntity
100
AcDbBlockBegin
2
*MODEL_SPACE
0
ENDBLK
5
21
100
AcDbEntity
100
AcDbBlockEnd
0
BLOCK
5
1C
100
AcDbEntity
100
AcDbBlockBegin
2
*PAPER_SPACE
0
ENDBLK
5
1D
100
AcDbEntity
100
AcDbBlockEnd
0
ENDSEC
0
SECTION
2
ENTITIES
0
LINE
5
100
100
AcDbEntity
8
0
100
AcDbLine
10
-196.14536842105267
20
-64.375000000000028
30
0
11
-173.30473684210529
21
-64.375000000000028
31
0
0
LINE
5
101
100
AcDbEntity
8
0
100
AcDbLine
10
-173.30473684210529
20
-64.375000000000028
30
0
11
-173.30473684210529
21
-70.375
31
0
0
LINE
5
102
100
AcDbEntity
8
0
100
AcDbLine
10
-173.30473684210529
20
-70.375
30
0
11
-149.96410526315796
21
-70.375
31
0
0
LINE
5
103
100
AcDbEntity
8
0
100
AcDbLine
10
-149.96410526315796
20
-70.375
30
0
11
-149.96410526315793
21
-64.375000000000028
31
0
0
LINE
5
104
100
AcDbEntity
8
0
100
AcDbLine
10
-149.96410526315793
20
-64.375000000000028
30
0
11
-127.12347368421052
21
-64.375000000000028
31
0
0
LINE
5
105
100
AcDbEntity
8
0
100
AcDbLine
10
-127.12347368421052
20
-64.375000000000028
30
0
11
-127.12347368421052
21
-70.375
31
0
0
LINE
5
106
100
AcDbEntity
8
0
100
AcDbLine
10
-127.12347368421052
20
-70.375
30
0
11
-103.7828421052632
21
-70.375
31
0
0
LINE
5
107
100
AcDbEntity
8
0
100
AcDbLine
10
-103.7828421052632
20
-70.375
30
0
11
-103.78284210526319
21
-64.375000000000028
31
0
0
LINE
5
108
100
AcDbEntity
8
0
100
AcDbLine
10
-103.78284210526319
20
-64.375000000000028
30
0
11
-80.942210526315819
21
-64.375000000000028
31
0
0
LINE
5
109
100
AcDbEntity
8
0
100
AcDbLine
10
-80.942210526315819
20
-64.375000000000028
30
0
11
-80.942210526315804
21
-70.375
31
0
0
LINE
5
110
100
AcDbEntity
8
0
100
AcDbLine
10
-80.942210526315804
20
-70.375
30
0
11
-57.601578947368452
21
-70.375
31
0
0
LINE
5
111
100
AcDbEntity
8
0
100
AcDbLine
10
-57.601578947368452
20
-70.375
30
0
11
-57.601578947368431
21
-64.375000000000028
31
0
0
LINE
5
112
100
AcDbEntity
8
0
100
AcDbLine
10
-57.601578947368431
20
-64.375000000000028
30
0
11
-34.760947368421078
21
-64.375000000000028
31
0
0
LINE
5
113
100
AcDbEntity
8
0
100
AcDbLine
10
-34.760947368421078
20
-64.375000000000028
30
0
11
-34.760947368421078
21
-70.375
31
0
0
LINE
5
114
100
AcDbEntity
8
0
100
AcDbLine
10
-34.760947368421078
20
-70.375
30
0
11
-11.420315789473703
21
-70.375
31
0
0
LINE
5
115
100
AcDbEntity
8
0
100
AcDbLine
10
-11.420315789473703
20
-70.375
30
0
11
-11.420315789473703
21
-64.375000000000028
31
0
0
LINE
5
116
100
AcDbEntity
8
0
100
AcDbLine
10
-11.420315789473703
20
-64.375000000000028
30
0
11
11.420315789473667
21
-64.375000000000028
31
0
0
LINE
5
117
100
AcDbEntity
8
0
100
AcDbLine
10
11.420315789473667
20
-64.375000000000028
30
0
11
11.420315789473667
21
-70.375
31
0
0
LINE
5
118
100
AcDbEntity
8
0
100
AcDbLine
10
11.420315789473667
20
-70.375
30
0
11
34.760947368421043
21
-70.375
31
0
0
LINE
5
119
100
AcDbEntity
8
0
100
AcDbLine
10
34.760947368421043
20
-70.375
30
0
11
34.760947368421043
21
-64.375000000000028
31
0
0
LINE
5
120
100
AcDbEntity
8
0
100
AcDbLine
10
34.760947368421043
20
-64.375000000000028
30
0
11
57.601578947368417
21
-64.375000000000028
31
0
0
LINE
5
121
100
AcDbEntity
8
0
100
AcDbLine
10
57.601578947368417
20
-64.375000000000028
30
0
11
57.601578947368417
21
-70.375
31
0
0
LINE
5
122
100
AcDbEntity
8
0
100
AcDbLine
10
57.601578947368417
20
-70.375
30
0
11
80.94221052631579
21
-70.375
31
0
0
LINE
5
123
100
AcDbEntity
8
0
100
AcDbLine
10
80.94221052631579
20
-70.375
30
0
11
80.94221052631579
21
-64.375000000000028
31
0
0
LINE
5
124
100
AcDbEntity
8
0
100
AcDbLine
10
80.94221052631579
20
-64.375000000000028
30
0
11
103.78284210526317
21
-64.375000000000028
31
0
0
LINE
5
125
100
AcDbEntity
8
0
100
AcDbLine
10
103.78284210526317
20
-64.375000000000028
30
0
11
103.78284210526317
21
-70.375
31
0
0
LINE
5
126
100
AcDbEntity
8
0
100
AcDbLine
10
103.78284210526317
20
-70.375
30
0
11
127.1234736842105
21
-70.375
31
0
0
LINE
5
127
100
AcDbEntity
8
0
100
AcDbLine
10
127.1234736842105
20
-70.375
30
0
11
127.1234736842105
21
-64.375000000000028
31
0
0
LINE
5
128
100
AcDbEntity
8
0
100
AcDbLine
10
127.1234736842105
20
-64.375000000000028
30
0
11
149.96410526315785
21
-64.375000000000028
31
0
0
LINE
5
129
100
AcDbEntity
8
0
100
AcDbLine
10
149.96410526315785
20
-64.375000000000028
30
0
11
149.96410526315785
21
-70.375
31
0
0
LINE
5
130
100
AcDbEntity
8
0
100
AcDbLine
10
149.96410526315785
20
-70.375
30
0
11
173.30473684210523
21
-70.375
31
0
0
LINE
5
131
100
AcDbEntity
8
0
100
AcDbLine
10
173.30473684210523
20
-70.375
30
0
11
173.30473684210523
21
-64.375000000000028
31
0
0
LINE
5
132
100
AcDbEntity
8
0
100
AcDbLine
10
173.30473684210523
20
-64.375000000000028
30
0
11
196.14536842105267
21
-64.375000000000028
31
0
0
LINE
5
133
100
AcDbEntity
8
0
100
AcDbLine
10
196.14536842105267
20
-64.375000000000028
30
0
11
196.14536842105267
21
-70.375
31
0
0
LINE
5
134
100
AcDbEntity
8
0
100
AcDbLine
10
196.14536842105267
20
-70.375
30
0
11
219.48600000000002
21
-70.375
31
0
0
LINE
5
135
100
AcDbEntity
8
0
100
AcDbLine
10
219.48600000000002
20
-70.375
30
0
11
219.48600000000002
21
-49.196428571428584
31
0
0
LINE
5
136
100
AcDbEntity
8
0
100
AcDbLine
10
219.48600000000002
20
-49.196428571428584
30
0
11
213.48600000000002
21
-49.196428571428584
31
0
0
LINE
5
137
100
AcDbEntity
8
0
100
AcDbLine
10
213.48600000000002
20
-49.196428571428584
30
0
11
213.48600000000002
21
-28.517428571428589
31
0
0
LINE
5
138
100
AcDbEntity
8
0
100
AcDbLine
10
213.48600000000002
20
-28.517428571428589
30
0
11
219.48600000000002
21
-28.517428571428578
31
0
0
LINE
5
139
100
AcDbEntity
8
0
100
AcDbLine
10
219.48600000000002
20
-28.517428571428578
30
0
11
219.48600000000002
21
-7.3384285714285857
31
0
0
LINE
5
140
100
AcDbEntity
8
0
100
AcDbLine
10
219.48600000000002
20
-7.3384285714285857
30
0
11
213.48600000000002
21
-7.3384285714285769
31
0
0
LINE
5
141
100
AcDbEntity
8
0
100
AcDbLine
10
213.48600000000002
20
-7.3384285714285769
30
0
11
213.48600000000002
21
13.340571428571408
31
0
0
LINE
5
142
100
AcDbEntity
8
0
100
AcDbLine
10
213.48600000000002
20
13.340571428571408
30
0
11
219.48600000000002
21
13.340571428571408
31
0
0
LINE
5
143
100
AcDbEntity
8
0
100
AcDbLine
10
219.48600000000002
20
13.340571428571408
30
0
11
219.48600000000002
21
34.519571428571417
31
0
0
LINE
5
144
100
AcDbEntity
8
0
100
AcDbLine
10
219.48600000000002
20
34.519571428571417
30
0
11
213.48600000000002
21
34.519571428571417
31
0
0
LINE
5
145
100
AcDbEntity
8
0
100
AcDbLine
10
213.48600000000002
20
34.519571428571417
30
0
11
213.48600000000002
21
55.198571428571412
31
0
0
LINE
5
146
100
AcDbEntity
8
0
100
AcDbLine
10
213.48600000000002
20
55.198571428571412
30
0
11
219.48600000000002
21
55.198571428571412
31
0
0
LINE
5
147
100
AcDbEntity
8
0
100
AcDbLine
10
219.48600000000002
20
55.198571428571412
30
0
11
219.48600000000002
21
70.375
31
0
0
LINE
5
148
100
AcDbEntity
8
0
100
AcDbLine
10
219.48600000000002
20
70.375
30
0
11
196.14536842105267
21
70.375
31
0
0
LINE
5
149
100
AcDbEntity
8
0
100
AcDbLine
10
196.14536842105267
20
70.375
30
0
11
196.14536842105269
21
64.375
31
0
0
LINE
5
150
100
AcDbEntity
8
0
100
AcDbLine
10
196.14536842105269
20
64.375
30
0
11
173.30436842105269
21
64.375
31
0
0
LINE
5
151
100
AcDbEntity
8
0
100
AcDbLine
10
173.30436842105269
20
64.375
30
0
11
173.30436842105263
21
70.375
31
0
0
LINE
5
152
100
AcDbEntity
8
0
100
AcDbLine
10
173.30436842105263
20
70.375
30
0
11
149.96336842105265
21
70.375
31
0
0
LINE
5
153
100
AcDbEntity
8
0
100
AcDbLine
10
149.96336842105265
20
70.375
30
0
11
149.96336842105268
21
64.375
31
0
0
LINE
5
154
100
AcDbEntity
8
0
100
AcDbLine
10
149.96336842105268
20
64.375
30
0
11
127.12236842105267
21
64.375
31
0
0
LINE
5
155
100
AcDbEntity
8
0
100
AcDbLine
10
127.12236842105267
20
64.375
30
0
11
127.12236842105267
21
70.375
31
0
0
LINE
5
156
100
AcDbEntity
8
0
100
AcDbLine
10
127.12236842105267
20
70.375
30
0
11
103.78136842105266
21
70.375
31
0
0
LINE
5
157
100
AcDbEntity
8
0
100
AcDbLine
10
103.78136842105266
20
70.375
30
0
11
103.78136842105266
21
64.375
31
0
0
LINE
5
158
100
AcDbEntity
8
0
100
AcDbLine
10
103.78136842105266
20
64.375
30
0
11
80.940368421052654
21
64.375
31
0
0
LINE
5
159
100
AcDbEntity
8
0
100
AcDbLine
10
80.940368421052654
20
64.375
30
0
11
80.940368421052654
21
70.375
31
0
0
LINE
5
160
100
AcDbEntity
8
0
100
AcDbLine
10
80.940368421052654
20
70.375
30
0
11
57.59936842105266
21
70.375
31
0
0
LINE
5
161
100
AcDbEntity
8
0
100
AcDbLine
10
57.59936842105266
20
70.375
30
0
11
57.599368421052645
21
64.375
31
0
0
LINE
5
162
100
AcDbEntity
8
0
100
AcDbLine
10
57.599368421052645
20
64.375
30
0
11
34.758368421052673
21
64.375
31
0
0
LINE
5
163
100
AcDbEntity
8
0
100
AcDbLine
10
34.758368421052673
20
64.375
30
0
11
34.758368421052673
21
70.375
31
0
0
LINE
5
164
100
AcDbEntity
8
0
100
AcDbLine
10
34.758368421052673
20
70.375
30
0
11
11.417368421052663
21
70.375
31
0
0
LINE
5
165
100
AcDbEntity
8
0
100
AcDbLine
10
11.417368421052663
20
70.375
30
0
11
11.417368421052663
21
64.375
31
0
0
LINE
5
166
100
AcDbEntity
8
0
100
AcDbLine
10
11.417368421052663
20
64.375
30
0
11
-11.423631578947342
21
64.375
31
0
0
LINE
5
167
100
AcDbEntity
8
0
100
AcDbLine
10
-11.423631578947342
20
64.375
30
0
11
-11.423631578947342
21
70.375
31
0
0
LINE
5
168
100
AcDbEntity
8
0
100
AcDbLine
10
-11.423631578947342
20
70.375
30
0
11
-34.764631578947352
21
70.375
31
0
0
LINE
5
169
100
AcDbEntity
8
0
100
AcDbLine
10
-34.764631578947352
20
70.375
30
0
11
-34.764631578947352
21
64.375
31
0
0
LINE
5
170
100
AcDbEntity
8
0
100
AcDbLine
10
-34.764631578947352
20
64.375
30
0
11
-57.60563157894736
21
64.375
31
0
0
LINE
5
171
100
AcDbEntity
8
0
100
AcDbLine
10
-57.60563157894736
20
64.375
30
0
11
-57.60563157894736
21
70.375
31
0
0
LINE
5
172
100
AcDbEntity
8
0
100
AcDbLine
10
-57.60563157894736
20
70.375
30
0
11
-80.946631578947319
21
70.375
31
0
0
LINE
5
173
100
AcDbEntity
8
0
100
AcDbLine
10
-80.946631578947319
20
70.375
30
0
11
-80.946631578947319
21
64.375
31
0
0
LINE
5
174
100
AcDbEntity
8
0
100
AcDbLine
10
-80.946631578947319
20
64.375
30
0
11
-103.78763157894736
21
64.375
31
0
0
LINE
5
175
100
AcDbEntity
8
0
100
AcDbLine
10
-103.78763157894736
20
64.375
30
0
11
-103.78763157894736
21
70.375
31
0
0
LINE
5
176
100
AcDbEntity
8
0
100
AcDbLine
10
-103.78763157894736
20
70.375
30
0
11
-127.12863157894731
21
70.375
31
0
0
LINE
5
177
100
AcDbEntity
8
0
100
AcDbLine
10
-127.12863157894731
20
70.375
30
0
11
-127.12863157894731
21
64.375
31
0
0
LINE
5
178
100
AcDbEntity
8
0
100
AcDbLine
10
-127.12863157894731
20
64.375
30
0
11
-149.96963157894731
21
64.375
31
0
0
LINE
5
179
100
AcDbEntity
8
0
100
AcDbLine
10
-149.96963157894731
20
64.375
30
0
11
-149.96963157894731
21
70.375
31
0
0
LINE
5
180
100
AcDbEntity
8
0
100
AcDbLine
10
-149.96963157894731
20
70.375
30
0
11
-173.31063157894732
21
70.375
31
0
0
LINE
5
181
100
AcDbEntity
8
0
100
AcDbLine
10
-173.31063157894732
20
70.375
30
0
11
-173.31063157894732
21
64.375
31
0
0
LINE
5
182
100
AcDbEntity
8
0
100
AcDbLine
10
-173.31063157894732
20
64.375
30
0
11
-196.15163157894733
21
64.375
31
0
0
LINE
5
183
100
AcDbEntity
8
0
100
AcDbLine
10
-196.15163157894733
20
64.375
30
0
11
-196.15163157894733
21
70.375
31
0
0
LINE
5
184
100
AcDbEntity
8
0
100
AcDbLine
10
-196.15163157894733
20
70.375
30
0
11
-219.48600000000002
21
70.375
31
0
0
LINE
5
185
100
AcDbEntity
8
0
100
AcDbLine
10
-219.48600000000002
20
70.375
30
0
11
-219.48600000000002
21
55.19857142857137
31
0
0
LINE
5
186
100
AcDbEntity
8
0
100
AcDbLine
10
-219.48600000000002
20
55.19857142857137
30
0
11
-213.48600000000002
21
55.19857142857137
31
0
0
LINE
5
187
100
AcDbEntity
8
0
100
AcDbLine
10
-213.48600000000002
20
55.19857142857137
30
0
11
-213.48600000000002
21
34.519571428571389
31
0
0
LINE
5
188
100
AcDbEntity
8
0
100
AcDbLine
10
-213.48600000000002
20
34.519571428571389
30
0
11
-219.48600000000002
21
34.519571428571389
31
0
0
LINE
5
189
100
AcDbEntity
8
0
100
AcDbLine
10
-219.48600000000002
20
34.519571428571389
30
0
11
-219.48600000000002
21
13.340571428571373
31
0
0
LINE
5
190
100
AcDbEntity
8
0
100
AcDbLine
10
-219.48600000000002
20
13.340571428571373
30
0
11
-213.48600000000002
21
13.340571428571382
31
0
0
LINE
5
191
100
AcDbEntity
8
0
100
AcDbLine
10
-213.48600000000002
20
13.340571428571382
30
0
11
-213.48600000000002
21
-7.3384285714286213
31
0
0
LINE
5
192
100
AcDbEntity
8
0
100
AcDbLine
10
-213.48600000000002
20
-7.3384285714286213
30
0
11
-219.48600000000002
21
-7.3384285714286168
31
0
0
LINE
5
193
100
AcDbEntity
8
0
100
AcDbLine
10
-219.48600000000002
20
-7.3384285714286168
30
0
11
-219.48600000000002
21
-28.517428571428617
31
0
0
LINE
5
194
100
AcDbEntity
8
0
100
AcDbLine
10
-219.48600000000002
20
-28.517428571428617
30
0
11
-213.48600000000002
21
-28.517428571428614
31
0
0
LINE
5
195
100
AcDbEntity
8
0
100
AcDbLine
10
-213.48600000000002
20
-28.517428571428614
30
0
11
-213.48600000000002
21
-49.196428571428605
31
0
0
LINE
5
196
100
AcDbEntity
8
0
100
AcDbLine
10
-213.48600000000002
20
-49.196428571428605
30
0
11
-219.48600000000002
21
-49.196428571428605
31
0
0
LINE
5
197
100
AcDbEntity
8
0
100
AcDbLine
10
-219.48600000000002
20
-49.196428571428605
30
0
11
-219.48600000000002
21
-70.375
31
0
0
LINE
5
198
100
AcDbEntity
8
0
100
AcDbLine
10
-219.48600000000002
20
-70.375
30
0
11
-196.14536842105264
21
-70.375
31
0
0
LINE
5
199
100
AcDbEntity
8
0
100
AcDbLine
10
-196.14536842105264
20
-70.375
30
0
11
-196.14536842105267
21
-64.375000000000028
31
0
0
ENDSEC
0
SECTION
2
OBJECTS
0
DICTIONARY
5
C
100
AcDbDictionary
3
ACAD_GROUP
350
D
3
ACAD_MLINESTYLE
350
17
0
DICTIONARY
5
D
100
AcDbDictionary
0
DICTIONARY
5
1A
330
C
100
AcDbDictionary
0
DICTIONARY
5
17
100
AcDbDictionary
0
ENDSEC
0
EOF
