0
SECTION
2
HEADER
9
$INSUNITS
70
4
9
$ACADVER
1
AC1014
9
$HANDSEED
5
FFFF
0
ENDSEC
0
SECTION
2
TABLES
0
TABLE
2
VPORT
5
8
100
AcDbSymbolTable
0
ENDTAB
0
TABLE
2
LTYPE
5
5
100
AcDbSymbolTable
0
LTYPE
5
14
100
AcDbSymbolTableRecord
100
AcDbLinetypeTableRecord
2
BYBLOCK
70
0
0
LTYPE
5
15
100
AcDbSymbolTableRecord
100
AcDbLinetypeTableRecord
2
BYLAYER
70
0
0
ENDTAB
0
TABLE
2
LAYER
5
2
100
AcDbSymbolTable
70
2
0
LAYER
5
50
100
AcDbSymbolTableRecord
100
AcDbLayerTableRecord
2
0
70
0
6
CONTINUOUS
0
ENDTAB
0
TABLE
2
STYLE
5
3
100
AcDbSymbolTable
70
1
0
STYLE
5
11
100
AcDbSymbolTableRecord
100
AcDbTextStyleTableRecord
2
STANDARD
70
0
0
ENDTAB
0
TABLE
2
VIEW
5
6
100
AcDbSymbolTable
70
0
0
ENDTAB
0
TABLE
2
UCS
5
7
100
AcDbSymbolTable
70
0
0
ENDTAB
0
TABLE
2
APPID
5
9
100
AcDbSymbolTable
70
2
0
APPID
5
12
100
AcDbSymbolTableRecord
100
AcDbRegAppTableRecord
2
ACAD
70
0
0
ENDTAB
0
TABLE
2
DIMSTYLE
5
A
100
AcDbSymbolTable
70
1
0
ENDTAB
0
TABLE
2
BLOCK_RECORD
5
1
100
AcDbSymbolTable
70
1
0
BLOCK_RECORD
5
1F
100
AcDbSymbolTableRecord
100
AcDbBlockTableRecord
2
*MODEL_SPACE
0
BLOCK_RECORD
5
1B
100
AcDbSymbolTableRecord
100
AcDbBlockTableRecord
2
*PAPER_SPACE
0
ENDTAB
0
ENDSEC
0
SECTION
2
BLOCKS
0
BLOCK
5
20
100
AcDbEntity
100
AcDbBlockBegin
2
*MODEL_SPACE
0
ENDBLK
5
21
100
AcDbEntity
100
AcDbBlockEnd
0
BLOCK
5
1C
100
AcDbEntity
100
AcDbBlockBegin
2
*PAPER_SPACE
0
ENDBLK
5
1D
100
AcDbEntity
100
AcDbBlockEnd
0
ENDSEC
0
SECTION
2
ENTITIES
0
LINE
5
100
100
AcDbEntity
8
0
100
AcDbLine
10
126.87347368421051
20
-49.625
30
0
11
150.21410526315782
21
-49.625
31
0
0
LINE
5
101
100
AcDbEntity
8
0
100
AcDbLine
10
150.21410526315782
20
-49.625
30
0
11
150.21410526315782
21
-43.625000000000007
31
0
0
LINE
5
102
100
AcDbEntity
8
0
100
AcDbLine
10
150.21410526315782
20
-43.625000000000007
30
0
11
173.05473684210526
21
-43.625000000000007
31
0
0
LINE
5
103
100
AcDbEntity
8
0
100
AcDbLine
10
173.05473684210526
20
-43.625000000000007
30
0
11
173.05473684210526
21
-49.625
31
0
0
LINE
5
104
100
AcDbEntity
8
0
100
AcDbLine
10
173.05473684210526
20
-49.625
30
0
11
196.39536842105264
21
-49.625
31
0
0
LINE
5
105
100
AcDbEntity
8
0
100
AcDbLine
10
196.39536842105264
20
-49.625
30
0
11
196.39536842105264
21
-43.625000000000007
31
0
0
LINE
5
106
100
AcDbEntity
8
0
100
AcDbLine
10
196.39536842105264
20
-43.625000000000007
30
0
11
219.48600000000002
21
-43.625000000000007
31
0
0
LINE
5
107
100
AcDbEntity
8
0
100
AcDbLine
10
219.48600000000002
20
-43.625000000000007
30
0
11
219.48600000000002
21
-35.232142857142861
31
0
0
LINE
5
108
100
AcDbEntity
8
0
100
AcDbLine
10
219.48600000000002
20
-35.232142857142861
30
0
11
213.48600000000002
21
-35.232142857142861
31
0
0
LINE
5
109
100
AcDbEntity
8
0
100
AcDbLine
10
213.48600000000002
20
-35.232142857142861
30
0
11
213.48600000000002
21
-21.339142857142861
31
0
0
LINE
5
110
100
AcDbEntity
8
0
100
AcDbLine
10
213.48600000000002
20
-21.339142857142861
30
0
11
219.48600000000002
21
-21.339142857142861
31
0
0
LINE
5
111
100
AcDbEntity
8
0
100
AcDbLine
10
219.48600000000002
20
-21.339142857142861
30
0
11
219.48600000000002
21
-6.9461428571428385
31
0
0
LINE
5
112
100
AcDbEntity
8
0
100
AcDbLine
10
219.48600000000002
20
-6.9461428571428385
30
0
11
213.48600000000002
21
-6.9461428571428385
31
0
0
LINE
5
113
100
AcDbEntity
8
0
100
AcDbLine
10
213.48600000000002
20
-6.9461428571428385
30
0
11
213.48600000000002
21
6.9468571428571479
31
0
0
LINE
5
114
100
AcDbEntity
8
0
100
AcDbLine
10
213.48600000000002
20
6.9468571428571479
30
0
11
219.48600000000002
21
6.9468571428571479
31
0
0
LINE
5
115
100
AcDbEntity
8
0
100
AcDbLine
10
219.48600000000002
20
6.9468571428571479
30
0
11
219.48600000000002
21
21.339857142857142
31
0
0
LINE
5
116
100
AcDbEntity
8
0
100
AcDbLine
10
219.48600000000002
20
21.339857142857142
30
0
11
213.48600000000002
21
21.339857142857142
31
0
0
LINE
5
117
100
AcDbEntity
8
0
100
AcDbLine
10
213.48600000000002
20
21.339857142857142
30
0
11
213.48600000000002
21
35.232857142857156
31
0
0
LINE
5
118
100
AcDbEntity
8
0
100
AcDbLine
10
213.48600000000002
20
35.232857142857156
30
0
11
219.48600000000002
21
35.232857142857156
31
0
0
LINE
5
119
100
AcDbEntity
8
0
100
AcDbLine
10
219.48600000000002
20
35.232857142857156
30
0
11
219.48600000000002
21
49.624999999999993
31
0
0
LINE
5
120
100
AcDbEntity
8
0
100
AcDbLine
10
219.48600000000002
20
49.624999999999993
30
0
11
-219.48600000000002
21
49.624999999999993
31
0
0
LINE
5
121
100
AcDbEntity
8
0
100
AcDbLine
10
-219.48600000000002
20
49.624999999999993
30
0
11
-219.48600000000002
21
35.232857142857171
31
0
0
LINE
5
122
100
AcDbEntity
8
0
100
AcDbLine
10
-219.48600000000002
20
35.232857142857171
30
0
11
-213.48600000000002
21
35.232857142857171
31
0
0
LINE
5
123
100
AcDbEntity
8
0
100
AcDbLine
10
-213.48600000000002
20
35.232857142857171
30
0
11
-213.48600000000002
21
21.339857142857159
31
0
0
LINE
5
124
100
AcDbEntity
8
0
100
AcDbLine
10
-213.48600000000002
20
21.339857142857159
30
0
11
-219.48600000000002
21
21.339857142857159
31
0
0
LINE
5
125
100
AcDbEntity
8
0
100
AcDbLine
10
-219.48600000000002
20
21.339857142857159
30
0
11
-219.48600000000002
21
6.9468571428571479
31
0
0
LINE
5
126
100
AcDbEntity
8
0
100
AcDbLine
10
-219.48600000000002
20
6.9468571428571479
30
0
11
-213.48600000000002
21
6.9468571428571479
31
0
0
LINE
5
127
100
AcDbEntity
8
0
100
AcDbLine
10
-213.48600000000002
20
6.9468571428571479
30
0
11
-213.48600000000002
21
-6.9461428571428563
31
0
0
LINE
5
128
100
AcDbEntity
8
0
100
AcDbLine
10
-213.48600000000002
20
-6.9461428571428563
30
0
11
-219.48600000000002
21
-6.9461428571428563
31
0
0
LINE
5
129
100
AcDbEntity
8
0
100
AcDbLine
10
-219.48600000000002
20
-6.9461428571428563
30
0
11
-219.48600000000002
21
-21.339142857142832
31
0
0
LINE
5
130
100
AcDbEntity
8
0
100
AcDbLine
10
-219.48600000000002
20
-21.339142857142832
30
0
11
-213.48600000000002
21
-21.339142857142832
31
0
0
LINE
5
131
100
AcDbEntity
8
0
100
AcDbLine
10
-213.48600000000002
20
-21.339142857142832
30
0
11
-213.48600000000002
21
-35.232142857142854
31
0
0
LINE
5
132
100
AcDbEntity
8
0
100
AcDbLine
10
-213.48600000000002
20
-35.232142857142854
30
0
11
-219.48600000000002
21
-35.232142857142854
31
0
0
LINE
5
133
100
AcDbEntity
8
0
100
AcDbLine
10
-219.48600000000002
20
-35.232142857142854
30
0
11
-219.48600000000002
21
-43.625000000000007
31
0
0
LINE
5
134
100
AcDbEntity
8
0
100
AcDbLine
10
-219.48600000000002
20
-43.625000000000007
30
0
11
-196.39536842105261
21
-43.625000000000007
31
0
0
LINE
5
135
100
AcDbEntity
8
0
100
AcDbLine
10
-196.39536842105261
20
-43.625000000000007
30
0
11
-196.39536842105261
21
-49.625
31
0
0
LINE
5
136
100
AcDbEntity
8
0
100
AcDbLine
10
-196.39536842105261
20
-49.625
30
0
11
-173.05473684210529
21
-49.625
31
0
0
LINE
5
137
100
AcDbEntity
8
0
100
AcDbLine
10
-173.05473684210529
20
-49.625
30
0
11
-173.05473684210529
21
-43.625000000000007
31
0
0
LINE
5
138
100
AcDbEntity
8
0
100
AcDbLine
10
-173.05473684210529
20
-43.625000000000007
30
0
11
-150.21410526315793
21
-43.625000000000007
31
0
0
LINE
5
139
100
AcDbEntity
8
0
100
AcDbLine
10
-150.21410526315793
20
-43.625000000000007
30
0
11
-150.21410526315793
21
-49.625
31
0
0
LINE
5
140
100
AcDbEntity
8
0
100
AcDbLine
10
-150.21410526315793
20
-49.625
30
0
11
-126.87347368421055
21
-49.625
31
0
0
LINE
5
141
100
AcDbEntity
8
0
100
AcDbLine
10
-126.87347368421055
20
-49.625
30
0
11
-126.87347368421055
21
-43.625000000000007
31
0
0
LINE
5
142
100
AcDbEntity
8
0
100
AcDbLine
10
-126.87347368421055
20
-43.625000000000007
30
0
11
-104.0328421052632
21
-43.625000000000007
31
0
0
LINE
5
143
100
AcDbEntity
8
0
100
AcDbLine
10
-104.0328421052632
20
-43.625000000000007
30
0
11
-104.0328421052632
21
-49.625
31
0
0
LINE
5
144
100
AcDbEntity
8
0
100
AcDbLine
10
-104.0328421052632
20
-49.625
30
0
11
-80.69221052631579
21
-49.625
31
0
0
LINE
5
145
100
AcDbEntity
8
0
100
AcDbLine
10
-80.69221052631579
20
-49.625
30
0
11
-80.69221052631579
21
-43.625000000000007
31
0
0
LINE
5
146
100
AcDbEntity
8
0
100
AcDbLine
10
-80.69221052631579
20
-43.625000000000007
30
0
11
-57.851578947368452
21
-43.625000000000007
31
0
0
LINE
5
147
100
AcDbEntity
8
0
100
AcDbLine
10
-57.851578947368452
20
-43.625000000000007
30
0
11
-57.851578947368452
21
-49.625
31
0
0
LINE
5
148
100
AcDbEntity
8
0
100
AcDbLine
10
-57.851578947368452
20
-49.625
30
0
11
-34.510947368421078
21
-49.625
31
0
0
LINE
5
149
100
AcDbEntity
8
0
100
AcDbLine
10
-34.510947368421078
20
-49.625
30
0
11
-34.510947368421078
21
-43.625000000000007
31
0
0
LINE
5
150
100
AcDbEntity
8
0
100
AcDbLine
10
-34.510947368421078
20
-43.625000000000007
30
0
11
-11.670315789473706
21
-43.625000000000007
31
0
0
LINE
5
151
100
AcDbEntity
8
0
100
AcDbLine
10
-11.670315789473706
20
-43.625000000000007
30
0
11
-11.670315789473705
21
-49.625
31
0
0
LINE
5
152
100
AcDbEntity
8
0
100
AcDbLine
10
-11.670315789473705
20
-49.625
30
0
11
11.670315789473669
21
-49.625
31
0
0
LINE
5
153
100
AcDbEntity
8
0
100
AcDbLine
10
11.670315789473669
20
-49.625
30
0
11
11.670315789473669
21
-43.625000000000007
31
0
0
LINE
5
154
100
AcDbEntity
8
0
100
AcDbLine
10
11.670315789473669
20
-43.625000000000007
30
0
11
34.510947368421043
21
-43.625000000000007
31
0
0
LINE
5
155
100
AcDbEntity
8
0
100
AcDbLine
10
34.510947368421043
20
-43.625000000000007
30
0
11
34.510947368421043
21
-49.625
31
0
0
LINE
5
156
100
AcDbEntity
8
0
100
AcDbLine
10
34.510947368421043
20
-49.625
30
0
11
57.851578947368417
21
-49.625
31
0
0
LINE
5
157
100
AcDbEntity
8
0
100
AcDbLine
10
57.851578947368417
20
-49.625
30
0
11
57.851578947368417
21
-43.625000000000007
31
0
0
LINE
5
158
100
AcDbEntity
8
0
100
AcDbLine
10
57.851578947368417
20
-43.625000000000007
30
0
11
80.69221052631579
21
-43.625000000000007
31
0
0
LINE
5
159
100
AcDbEntity
8
0
100
AcDbLine
10
80.69221052631579
20
-43.625000000000007
30
0
11
80.69221052631579
21
-49.625
31
0
0
LINE
5
160
100
AcDbEntity
8
0
100
AcDbLine
10
80.69221052631579
20
-49.625
30
0
11
104.03284210526316
21
-49.625
31
0
0
LINE
5
161
100
AcDbEntity
8
0
100
AcDbLine
10
104.03284210526316
20
-49.625
30
0
11
104.03284210526316
21
-43.625000000000007
31
0
0
LINE
5
162
100
AcDbEntity
8
0
100
AcDbLine
10
104.03284210526316
20
-43.625000000000007
30
0
11
126.87347368421051
21
-43.625000000000007
31
0
0
LINE
5
163
100
AcDbEntity
8
0
100
AcDbLine
10
126.87347368421051
20
-43.625000000000007
30
0
11
126.87347368421051
21
-49.625
31
0
0
ENDSEC
0
SECTION
2
OBJECTS
0
DICTIONARY
5
C
100
AcDbDictionary
3
ACAD_GROUP
350
D
3
ACAD_MLINESTYLE
350
17
0
DICTIONARY
5
D
100
AcDbDictionary
0
DICTIONARY
5
1A
330
C
100
AcDbDictionary
0
DICTIONARY
5
17
100
AcDbDictionary
0
ENDSEC
0
EOF
